<svg width="16" height="16" viewBox="0 0 16 16" fill="none" xmlns="http://www.w3.org/2000/svg">
<rect width="16" height="16" rx="2" fill="white"/>
<path d="M8.0259 1.33203H7.97284C7.84892 1.33203 7.7264 1.33738 7.60493 1.34741C7.5002 1.3561 7.39653 1.36847 7.29391 1.38452C7.06646 1.41952 6.84242 1.47241 6.62404 1.54266C6.53084 1.57275 6.43904 1.60618 6.34863 1.64296C6.09105 1.74519 5.84468 1.87163 5.61314 2.02041C5.53321 2.0719 5.45501 2.12606 5.37927 2.18223C4.57342 2.779 4.0184 3.63333 3.81544 4.58939C3.79659 4.67854 3.78088 4.7697 3.76832 4.86287C3.74466 5.03837 3.733 5.21516 3.73341 5.39211V10.6039C3.73461 11.6806 4.18162 12.7128 4.97637 13.4742C5.77113 14.2356 6.84875 14.6639 7.97284 14.6654H8.0259C9.15021 14.6642 10.2281 14.236 11.0232 13.4746C11.8182 12.7131 12.2654 11.6808 12.2667 10.6039V5.39378C12.2654 4.31692 11.8182 3.28452 11.0232 2.52306C10.2282 1.7616 9.15024 1.33327 8.0259 1.33203ZM11.9927 10.3027H11.9896C11.9798 10.3027 11.97 10.3027 11.9602 10.3027C11.5222 10.28 11.3881 9.76044 11.3557 9.58926V9.50936C11.3941 9.5532 11.4366 9.59359 11.4827 9.63005C11.5711 9.69941 11.6771 9.74499 11.7899 9.76211C11.8028 9.76445 11.8161 9.76545 11.8293 9.76713C11.8489 9.76713 11.8688 9.76713 11.8887 9.76713H11.9079C11.9167 9.76651 11.9254 9.76539 11.9341 9.76378C11.9426 9.76211 11.951 9.75976 11.9592 9.75676C11.9718 9.75207 11.9836 9.74553 11.9941 9.73737L11.9927 10.3027ZM5.59674 2.35474C5.8362 2.5807 5.98829 2.87795 6.02801 3.19766C6.06773 3.51737 5.99271 3.84051 5.81529 4.11397C5.63787 4.38744 5.3686 4.59496 5.05173 4.70244C4.73485 4.80993 4.38923 4.81097 4.07166 4.7054C4.25396 3.76629 4.79836 2.92719 5.59674 2.35474ZM4.00603 5.39712C4.0061 5.25459 4.01449 5.11216 4.03116 4.97052C4.4027 5.08229 4.8025 5.07252 5.16759 4.94274C5.53269 4.81295 5.84234 4.57054 6.04777 4.25367C6.2532 3.9368 6.34274 3.56348 6.30228 3.19251C6.26183 2.82154 6.09369 2.474 5.82433 2.20463C6.04765 2.06487 6.28518 1.94715 6.53329 1.85325C6.83906 2.24715 7.0132 2.72048 7.03277 3.21097C7.05235 3.70146 6.91647 4.18614 6.64298 4.60125C6.3695 5.01637 5.97123 5.34248 5.50056 5.53669C5.0299 5.7309 4.50887 5.78411 4.00603 5.68933V5.39712ZM4.00603 5.9598C4.41063 6.02795 4.8259 6.01047 5.22269 5.90859C5.61949 5.8067 5.9882 5.62287 6.30294 5.37001C6.61768 5.11714 6.87082 4.80137 7.04461 4.44485C7.21839 4.08833 7.30861 3.6997 7.30892 3.30624C7.30954 2.7553 7.1328 2.21757 6.80277 1.76632C7.02031 1.70195 7.24327 1.65575 7.46914 1.62825C7.81828 2.15917 7.99844 2.77599 7.98761 3.40337C7.97678 4.03075 7.77543 4.64153 7.40815 5.16111C7.04088 5.6807 6.52357 6.0866 5.91941 6.32924C5.31525 6.57189 4.65039 6.64077 4.00603 6.52749V5.9598ZM4.61725 6.84644C5.25849 6.847 5.88855 6.68559 6.44387 6.37849C6.9992 6.07139 7.46014 5.62946 7.78022 5.09728C8.1003 4.56509 8.26819 3.96148 8.26695 3.34731C8.26571 2.73315 8.09539 2.13016 7.77318 1.59916C7.83915 1.59582 7.90582 1.59414 7.97284 1.59414H8.0259C9.07766 1.59529 10.086 1.99599 10.8297 2.70832C11.5733 3.42065 11.9916 4.38644 11.9927 5.39378V9.53544L11.9903 9.53343C11.9854 9.53009 11.9808 9.52674 11.9756 9.52374C11.9695 9.52037 11.963 9.51746 11.9564 9.51504C11.9505 9.51291 11.9444 9.51112 11.9383 9.50969H11.9358C11.9252 9.50762 11.9145 9.50661 11.9037 9.50668H11.8451C11.7755 9.49802 11.7099 9.47092 11.6555 9.42845C11.475 9.28736 11.3763 9.02124 11.3665 8.90523C11.3654 8.88923 11.3615 8.87352 11.355 8.85876V8.78654C11.3661 8.79724 11.377 8.8076 11.3899 8.8173C11.4763 8.88869 11.581 8.93681 11.6932 8.95671C11.7061 8.95905 11.7194 8.96073 11.7327 8.9624C11.7522 8.9624 11.7721 8.9644 11.7917 8.9644H11.8112C11.82 8.96406 11.8287 8.96306 11.8374 8.9614C11.846 8.96011 11.8544 8.95798 11.8625 8.95504C11.8758 8.95034 11.8883 8.94368 11.8995 8.93532C11.9061 8.93003 11.9121 8.92422 11.9177 8.91793C11.9214 8.91413 11.9248 8.90998 11.9278 8.90556C11.9359 8.89423 11.942 8.88169 11.9459 8.86845C11.9483 8.86003 11.9498 8.85141 11.9505 8.84271C11.951 8.8357 11.951 8.82866 11.9505 8.82165C11.9499 8.81477 11.9487 8.80796 11.947 8.80125C11.9452 8.79463 11.9428 8.78814 11.94 8.78186C11.9372 8.77572 11.934 8.7698 11.9302 8.76414C11.9267 8.75845 11.9226 8.75308 11.918 8.74809C11.9134 8.74308 11.9083 8.73839 11.903 8.73405L11.9006 8.73205C11.8957 8.72837 11.8911 8.72503 11.8862 8.72202C11.8802 8.71861 11.8739 8.71559 11.8674 8.71299C11.8614 8.71049 11.8552 8.70847 11.8489 8.70697H11.8468C11.8363 8.70454 11.8255 8.7032 11.8147 8.70296H11.7854H11.7581H11.756C11.6867 8.69292 11.6217 8.6643 11.5686 8.62038C11.423 8.50069 11.3731 8.28605 11.356 8.14864V8.04333C11.4628 8.11758 11.5897 8.16087 11.7215 8.16804C11.7415 8.1696 11.7614 8.1706 11.7812 8.17104H11.8004C11.8091 8.17078 11.8179 8.17 11.8266 8.1687C11.8353 8.16741 11.8438 8.16529 11.852 8.16235C11.8654 8.1579 11.8779 8.15135 11.889 8.14296C11.9002 8.1348 11.91 8.12498 11.918 8.11387C11.9315 8.09529 11.9396 8.07359 11.9414 8.05102C11.9421 8.04402 11.9421 8.03696 11.9414 8.02996C11.9408 8.02309 11.9396 8.01627 11.9379 8.00956C11.9364 8.0029 11.9342 7.9964 11.9313 7.99017C11.9288 7.98398 11.9256 7.97804 11.9219 7.97245C11.9183 7.96665 11.9142 7.96117 11.9096 7.95607C11.9006 7.94577 11.89 7.93687 11.8782 7.92966C11.8722 7.92601 11.8659 7.92288 11.8594 7.9203C11.8528 7.91752 11.8461 7.91528 11.8391 7.91361C11.8286 7.91102 11.8178 7.90956 11.807 7.90927H11.7777H11.7505L11.7243 7.90693L11.6991 7.90358L11.6751 7.89957L11.6517 7.89422L11.6293 7.8882L11.608 7.88118L11.5874 7.87316L11.5679 7.86413L11.549 7.8541L11.5312 7.84307C11.5253 7.83936 11.5196 7.83534 11.5141 7.83103C11.5086 7.82702 11.5033 7.82267 11.4981 7.81833L11.4827 7.80429L11.4702 7.79125C11.3567 7.66855 11.3546 7.4733 11.3599 7.43151C11.3593 7.4357 11.3583 7.43984 11.3571 7.44388C11.3571 7.44054 11.3571 7.43719 11.3571 7.43385V7.36699C11.3571 7.33397 11.3434 7.3023 11.319 7.27892C11.2947 7.25555 11.2617 7.24237 11.2272 7.24228H11.2108C11.1763 7.24237 11.1433 7.25555 11.119 7.27892C11.0946 7.3023 11.0809 7.33397 11.0809 7.36699V7.48601C11.075 7.55722 11.046 7.70934 10.9413 7.80462C10.9369 7.8089 10.9323 7.81292 10.9274 7.81666L10.911 7.82936C10.9054 7.83337 10.8998 7.83738 10.8938 7.84106L10.876 7.85143L10.8572 7.86112L10.8376 7.86948C10.831 7.87215 10.824 7.87483 10.8174 7.87684C10.8104 7.8793 10.8033 7.88142 10.7961 7.88319L10.7741 7.88887L10.7514 7.89322C10.7434 7.89322 10.7357 7.89556 10.7277 7.89623C10.7197 7.89689 10.7113 7.89823 10.7033 7.89857H10.6778H10.6523H10.6251L10.5957 7.89656C10.5849 7.89617 10.574 7.89685 10.5633 7.89857C10.5563 7.89957 10.5494 7.90125 10.5427 7.90358C10.5359 7.90556 10.5293 7.90825 10.5231 7.91161C10.517 7.91466 10.511 7.91813 10.5053 7.92197C10.4996 7.92597 10.4942 7.93044 10.4893 7.93534C10.4844 7.93996 10.4799 7.945 10.476 7.95039C10.4718 7.95574 10.468 7.96145 10.4648 7.96744C10.4617 7.97353 10.4589 7.97978 10.4565 7.98616C10.4543 7.99273 10.4527 7.99943 10.4516 8.00622C10.4503 8.01317 10.4497 8.02023 10.4498 8.02728C10.4498 8.03603 10.4506 8.04477 10.4523 8.05336C10.4552 8.06687 10.4604 8.07985 10.4676 8.09181C10.4746 8.10355 10.4834 8.11416 10.4938 8.12323C10.5042 8.13235 10.516 8.1399 10.5287 8.14564C10.5367 8.14896 10.545 8.15164 10.5535 8.15366C10.5619 8.15366 10.5706 8.15734 10.5793 8.15834H10.5989C10.6188 8.15834 10.6387 8.15834 10.6586 8.15834C10.8101 8.16322 10.9588 8.11853 11.0802 8.03163C11.076 8.04625 11.0734 8.06127 11.0726 8.07643H11.0813V8.08011H11.0747V8.08546C11.0747 8.09549 11.0747 8.10585 11.0768 8.11655C11.0617 8.24593 11.0118 8.49869 10.8453 8.62874C10.791 8.67118 10.7253 8.69827 10.6558 8.70697H10.6265H10.5971C10.5862 8.70698 10.5753 8.7081 10.5647 8.71032H10.5626C10.5563 8.71163 10.5501 8.71331 10.5441 8.71533C10.5374 8.71786 10.531 8.72088 10.5249 8.72436C10.5199 8.72717 10.5151 8.7303 10.5106 8.73372L10.5078 8.73572C10.5022 8.73985 10.4971 8.74444 10.4924 8.74943C10.4877 8.75431 10.4833 8.75956 10.4795 8.76514C10.4757 8.77068 10.4723 8.77649 10.4694 8.78253C10.4663 8.78865 10.4639 8.79503 10.462 8.80159C10.46 8.80824 10.4585 8.81507 10.4579 8.82198C10.4572 8.82899 10.4572 8.83604 10.4579 8.84304C10.4581 8.85185 10.4594 8.8606 10.4617 8.86912C10.4648 8.88271 10.4702 8.8957 10.4778 8.90757C10.4807 8.91202 10.484 8.91626 10.4875 8.92027C10.4929 8.92666 10.4989 8.93259 10.5053 8.93799C10.5159 8.94648 10.5276 8.95346 10.5402 8.95872C10.5483 8.96187 10.5568 8.96422 10.5654 8.96574C10.574 8.96762 10.5827 8.96885 10.5916 8.96942H10.6108C10.6306 8.96942 10.6502 8.96942 10.6701 8.96942C10.6834 8.96942 10.6966 8.96674 10.7095 8.96474C10.8223 8.94794 10.9284 8.90258 11.0167 8.83335C11.0389 8.81562 11.06 8.79664 11.0799 8.77651V8.941C11.0628 9.05634 10.9486 9.31679 10.7602 9.44784C10.7034 9.48716 10.6363 9.51034 10.5664 9.51471H10.5643C10.5553 9.51471 10.5462 9.51471 10.5371 9.51471L10.5078 9.5127C10.4971 9.51166 10.4863 9.51166 10.4757 9.5127H10.4732C10.4668 9.51367 10.4605 9.51513 10.4544 9.51705C10.4477 9.51912 10.4411 9.52169 10.4348 9.52474C10.4296 9.52731 10.4246 9.53022 10.4198 9.53343L10.417 9.5351C10.4114 9.53908 10.406 9.54344 10.401 9.54814C10.3961 9.55284 10.3915 9.55787 10.3873 9.56318C10.3831 9.56854 10.3794 9.57424 10.3762 9.58024C10.3727 9.58611 10.3698 9.59226 10.3675 9.59863C10.3654 9.60531 10.3636 9.612 10.3622 9.61868C10.3608 9.62563 10.3601 9.63268 10.3601 9.63975C10.3601 9.64849 10.3609 9.65723 10.3626 9.66582C10.3654 9.67929 10.3703 9.69225 10.3772 9.70427C10.38 9.70895 10.3832 9.71297 10.3863 9.71731C10.3913 9.724 10.3969 9.73026 10.4031 9.73603C10.4134 9.74529 10.4252 9.75296 10.438 9.75877C10.446 9.76239 10.4544 9.7652 10.4631 9.76713C10.4715 9.76931 10.48 9.77098 10.4886 9.77214H10.5081C10.5277 9.77214 10.5476 9.77448 10.5671 9.77482C10.5804 9.77482 10.594 9.77481 10.6069 9.77214C10.7205 9.76119 10.829 9.72137 10.9211 9.6568C10.9793 9.61599 11.0325 9.56912 11.0799 9.51705V9.56553H11.0729C11.0729 9.57489 11.0754 9.58425 11.0768 9.59361C11.0516 9.725 10.9134 10.3074 10.4484 10.3198L10.4195 10.3174C10.4086 10.3171 10.3978 10.3177 10.387 10.3191H10.3846C10.3783 10.3201 10.3721 10.3214 10.3661 10.3231C10.3593 10.3252 10.3528 10.3279 10.3465 10.3311C10.3411 10.3335 10.3359 10.3364 10.3311 10.3398L10.3284 10.3415C10.3228 10.3455 10.3174 10.3497 10.3123 10.3542C10.3074 10.359 10.3028 10.3642 10.2987 10.3696C10.2945 10.3749 10.2908 10.3805 10.2875 10.3863C10.2841 10.3923 10.2813 10.3985 10.2791 10.405C10.2768 10.4116 10.2749 10.4183 10.2736 10.4251C10.2736 10.432 10.2729 10.439 10.2715 10.4461C10.2714 10.4549 10.2722 10.4636 10.2739 10.4722C10.2767 10.4857 10.2816 10.4987 10.2886 10.5107C10.2914 10.5154 10.2945 10.5194 10.2976 10.5237C10.3028 10.5304 10.3085 10.5367 10.3147 10.5424C10.3251 10.5516 10.3369 10.5593 10.3496 10.5652C10.3576 10.5685 10.3657 10.5713 10.3741 10.5735C10.3824 10.5757 10.391 10.5773 10.3996 10.5782L10.4191 10.5799C10.4296 10.5799 10.4404 10.5799 10.4509 10.5799H10.4634C10.7382 10.5712 10.9396 10.4314 11.0813 10.2506V10.3194C11.0813 10.3211 11.0813 10.3255 11.0789 10.3315C11.0789 10.3315 11.0789 10.3338 11.0789 10.3348C11.053 10.4431 10.8736 11.0509 10.3573 11.1265L10.328 11.1242C10.3172 11.1238 10.3063 11.1244 10.2955 11.1258H10.2934L10.2746 11.1298C10.2679 11.132 10.2613 11.1347 10.2551 11.1379C10.2498 11.1403 10.2448 11.1432 10.24 11.1466L10.2372 11.1482C10.2316 11.1521 10.2262 11.1563 10.2212 11.1609C10.2174 11.1646 10.2139 11.169 10.2104 11.173L8.16343 8.12123L8.42209 7.73541C8.44172 7.70615 8.44841 7.67062 8.44068 7.63664C8.43296 7.60266 8.41145 7.57301 8.3809 7.55421C8.35035 7.53541 8.31326 7.52901 8.27778 7.53641C8.24229 7.5438 8.21134 7.5644 8.19171 7.59366L7.99937 7.88386L7.80843 7.59901C7.78881 7.56975 7.75785 7.54915 7.72237 7.54175C7.68688 7.53436 7.64979 7.54076 7.61924 7.55956C7.58869 7.57836 7.56718 7.60801 7.55946 7.64199C7.55173 7.67597 7.55842 7.7115 7.57805 7.74076L7.83671 8.12658L5.78872 11.181C5.78506 11.1764 5.7811 11.1721 5.77685 11.168C5.77194 11.1634 5.76669 11.1591 5.76115 11.1553L5.75835 11.1536C5.75352 11.1502 5.74838 11.1473 5.743 11.1449C5.73671 11.1417 5.73017 11.1391 5.72345 11.1369C5.71737 11.1352 5.71119 11.1338 5.70495 11.1329H5.7025C5.69175 11.1314 5.68089 11.1309 5.67004 11.1312L5.64072 11.1335C5.12445 11.058 4.94537 10.4502 4.91919 10.3418C4.91919 10.3418 4.91919 10.3398 4.91919 10.3385C4.91811 10.3345 4.9173 10.3305 4.91675 10.3265V10.2576C5.05638 10.4385 5.25954 10.5782 5.5346 10.5869H5.54682C5.55764 10.5869 5.56811 10.5869 5.57893 10.5869L5.59813 10.5852C5.60686 10.5843 5.6155 10.5828 5.62396 10.5805C5.6324 10.5783 5.64068 10.5755 5.64875 10.5722C5.66139 10.5661 5.67313 10.5585 5.68365 10.5495C5.68989 10.5438 5.6955 10.5375 5.70041 10.5307C5.70375 10.5266 5.70679 10.5222 5.70948 10.5177C5.7164 10.5057 5.72135 10.4927 5.72415 10.4792C5.72582 10.4706 5.72664 10.4619 5.72659 10.4532C5.72658 10.4461 5.72588 10.439 5.72449 10.4321C5.72341 10.4253 5.72166 10.4186 5.71926 10.412C5.71683 10.4057 5.71403 10.3994 5.71088 10.3933C5.70749 10.3876 5.70376 10.382 5.69971 10.3766C5.69543 10.3712 5.69077 10.366 5.68575 10.3612C5.68079 10.3566 5.67542 10.3523 5.66969 10.3485L5.6669 10.3469C5.66218 10.3435 5.65716 10.3406 5.65189 10.3382C5.6456 10.335 5.63906 10.3323 5.63234 10.3301L5.61349 10.3261H5.6114C5.60064 10.3247 5.58978 10.3241 5.57893 10.3245L5.54961 10.3268C5.08361 10.3144 4.94537 9.73202 4.92129 9.60063C4.92129 9.59127 4.92408 9.58191 4.92513 9.57255H4.9185V9.51939C4.96575 9.57146 5.0189 9.61833 5.07697 9.65914C5.16912 9.72365 5.27757 9.76347 5.39113 9.77448C5.40405 9.77448 5.41731 9.77649 5.43058 9.77716C5.45048 9.77716 5.47002 9.77715 5.48992 9.77448H5.50912C5.51783 9.77332 5.52646 9.77165 5.53495 9.76947C5.55732 9.76423 5.57789 9.75351 5.59464 9.73837C5.60087 9.73269 5.60649 9.72642 5.6114 9.71965C5.61486 9.7156 5.6179 9.71123 5.62047 9.70661C5.62755 9.69466 5.63251 9.68167 5.63513 9.66816C5.63698 9.65959 5.6378 9.65084 5.63758 9.64209C5.63757 9.63502 5.63687 9.62797 5.63548 9.62102C5.6344 9.61419 5.63265 9.60748 5.63025 9.60096C5.62788 9.59467 5.62508 9.58852 5.62187 9.58258C5.61856 9.57666 5.61482 9.57096 5.6107 9.56553C5.60652 9.56012 5.60185 9.55509 5.59674 9.55048C5.59178 9.5457 5.58641 9.54134 5.58068 9.53744L5.57789 9.53577C5.57309 9.53256 5.56807 9.52965 5.56288 9.52708C5.55658 9.52403 5.55004 9.52146 5.54333 9.51939C5.5373 9.51743 5.53111 9.51598 5.52483 9.51504H5.52238C5.51159 9.514 5.50071 9.514 5.48992 9.51504L5.4606 9.51705C5.45152 9.51705 5.44245 9.51705 5.43337 9.51705H5.43128C5.36143 9.51262 5.29429 9.48945 5.23754 9.45018C5.04905 9.31913 4.93525 9.05868 4.91815 8.94334V8.77384C4.93781 8.79404 4.95879 8.81303 4.98098 8.83067C5.06937 8.89983 5.1754 8.94519 5.28816 8.96206C5.30107 8.96407 5.31469 8.96541 5.32795 8.96674C5.3475 8.96674 5.3674 8.96674 5.38695 8.96674H5.40649C5.41519 8.9662 5.42383 8.96497 5.43232 8.96307C5.44094 8.96159 5.44937 8.95924 5.45746 8.95605C5.47015 8.95093 5.48193 8.94393 5.49236 8.93532C5.49891 8.93 5.50487 8.92407 5.51017 8.9176C5.51373 8.91359 5.517 8.90934 5.51994 8.90489C5.52775 8.8934 5.53353 8.88074 5.53705 8.86745C5.53918 8.85889 5.54046 8.85016 5.54088 8.84137C5.54141 8.83436 5.54141 8.82732 5.54088 8.82031C5.53986 8.81345 5.53846 8.80664 5.5367 8.79991C5.53459 8.7934 5.53203 8.78703 5.52902 8.78086C5.52612 8.77482 5.52274 8.76901 5.51889 8.76347C5.51518 8.75781 5.51085 8.75255 5.50598 8.74776C5.50141 8.74277 5.49639 8.73818 5.49097 8.73405L5.48818 8.73205C5.48356 8.72855 5.47866 8.72541 5.47351 8.72269C5.4674 8.71915 5.46098 8.71613 5.45432 8.71366C5.44838 8.71163 5.44232 8.70996 5.43616 8.70864H5.43372C5.42317 8.70643 5.41241 8.70531 5.40161 8.7053H5.37228H5.34296C5.27347 8.69686 5.20782 8.67 5.15342 8.62774C4.98656 8.49768 4.93665 8.24493 4.92164 8.11555C4.92164 8.10485 4.92164 8.09448 4.92408 8.08445V8.0791H4.9171V8.07543H4.92548C4.92497 8.06024 4.92239 8.04518 4.9178 8.03063C5.0394 8.11748 5.18821 8.16216 5.33982 8.15734C5.35972 8.15734 5.37962 8.15734 5.39951 8.15734H5.41906C5.42744 8.15734 5.43616 8.15433 5.44454 8.15266C5.45315 8.15069 5.46156 8.148 5.46967 8.14463C5.48238 8.13882 5.49414 8.13128 5.50458 8.12223C5.51511 8.11317 5.52406 8.10256 5.53111 8.09081C5.53821 8.07883 5.54327 8.06585 5.54612 8.05236C5.54794 8.04377 5.54888 8.03504 5.54891 8.02628C5.54885 8.01923 5.54827 8.01219 5.54717 8.00522C5.54608 7.99839 5.54433 7.99167 5.54193 7.98516C5.53977 7.97873 5.53708 7.97247 5.5339 7.96644C5.53059 7.96051 5.52686 7.95482 5.52273 7.94938C5.51857 7.94407 5.51402 7.93904 5.50912 7.93434C5.50431 7.92944 5.49905 7.92497 5.49341 7.92097C5.48773 7.91712 5.48178 7.91366 5.47561 7.9106C5.46939 7.9073 5.46284 7.90461 5.45606 7.90258C5.44926 7.90028 5.44225 7.8986 5.43512 7.89756C5.4244 7.89583 5.41352 7.89516 5.40265 7.89556L5.37333 7.89756H5.34645H5.31992H5.29479C5.28641 7.89756 5.27839 7.89756 5.27001 7.89522L5.24662 7.89221L5.22358 7.88787L5.20159 7.88218C5.19461 7.88051 5.18763 7.87817 5.18065 7.87583C5.17376 7.87373 5.16701 7.87127 5.1604 7.86848L5.14085 7.86012C5.13422 7.85711 5.12829 7.85377 5.122 7.85042C5.11572 7.84708 5.10979 7.84374 5.1042 7.84006L5.08675 7.82836C5.08116 7.82435 5.07593 7.82 5.07069 7.81565C5.06579 7.81191 5.06113 7.80789 5.05673 7.80362C4.95201 7.70833 4.92268 7.55621 4.9171 7.485V7.36598C4.9171 7.33291 4.90338 7.30119 4.87896 7.2778C4.85455 7.25442 4.82143 7.24128 4.7869 7.24128H4.77328C4.73875 7.24128 4.70563 7.25442 4.68122 7.2778C4.6568 7.30119 4.64308 7.33291 4.64308 7.36598V7.43285V7.44288C4.64308 7.4382 4.64099 7.43385 4.64029 7.43051C4.64587 7.4723 4.64343 7.66755 4.53033 7.79024L4.51742 7.80328L4.50206 7.81733C4.49682 7.82167 4.49159 7.82602 4.486 7.83003L4.46924 7.84207L4.45144 7.8531L4.43259 7.86313L4.41304 7.87215L4.39245 7.88018L4.37081 7.8872C4.36348 7.88921 4.35615 7.89155 4.34847 7.89322L4.32543 7.89857C4.3174 7.89857 4.30937 7.90158 4.30099 7.90258L4.27586 7.90592L4.24968 7.90826H4.2228H4.19348C4.18253 7.90858 4.17164 7.91004 4.16102 7.91261C4.15412 7.91439 4.14735 7.91662 4.14077 7.9193C4.13421 7.92188 4.12791 7.92501 4.12192 7.92866C4.1101 7.93586 4.0995 7.94477 4.09051 7.95507C4.08604 7.96025 4.08196 7.96572 4.07829 7.97145C4.0748 7.97718 4.07165 7.9831 4.06886 7.98917C4.06613 7.99546 4.06391 8.00194 4.06223 8.00856C4.06053 8.01526 4.05937 8.02208 4.05874 8.02895C4.05822 8.03597 4.05822 8.04301 4.05874 8.05002C4.05949 8.05873 4.06112 8.06735 4.06363 8.07576C4.06749 8.08907 4.07375 8.10163 4.08213 8.11287C4.08999 8.12396 4.09966 8.13378 4.11075 8.14196C4.12188 8.15035 4.13438 8.1569 4.14775 8.16135C4.15612 8.16428 4.16477 8.16641 4.17358 8.1677C4.18214 8.16899 4.19076 8.16977 4.19942 8.17004H4.21896C4.23874 8.17004 4.25864 8.16904 4.27865 8.16703C4.41033 8.15988 4.53708 8.11659 4.64378 8.04233V8.14764C4.62667 8.28472 4.57676 8.49969 4.43155 8.61938C4.37841 8.66323 4.31344 8.69185 4.2441 8.70196H4.242H4.21477H4.18545C4.17463 8.70215 4.16386 8.7035 4.15334 8.70597H4.15089C4.14468 8.70747 4.1386 8.70949 4.13274 8.71199C4.12619 8.71445 4.11988 8.71747 4.11389 8.72101C4.10884 8.72397 4.10406 8.72733 4.09958 8.73104L4.09679 8.73305C4.09156 8.73739 4.08666 8.74208 4.08213 8.74709C4.07755 8.75215 4.07335 8.75751 4.06956 8.76314C4.06596 8.76887 4.0627 8.77478 4.05979 8.78086C4.05706 8.78715 4.05484 8.79363 4.05316 8.80025C4.05134 8.80694 4.05006 8.81376 4.04932 8.82064C4.04862 8.82765 4.04862 8.8347 4.04932 8.84171C4.04978 8.85043 4.0513 8.85907 4.05385 8.86745C4.05762 8.88067 4.06363 8.89321 4.07166 8.90456C4.0748 8.90891 4.07829 8.91292 4.08178 8.91693C4.08733 8.9233 4.09352 8.92912 4.10028 8.93431C4.11135 8.94268 4.12372 8.94933 4.13693 8.95404C4.14518 8.95697 4.15372 8.9591 4.16241 8.96039C4.17093 8.96205 4.17956 8.96306 4.18825 8.9634H4.20779C4.22769 8.9634 4.24724 8.9634 4.26713 8.9614C4.2804 8.95972 4.29366 8.95805 4.30623 8.95571C4.41854 8.93574 4.52332 8.88764 4.60992 8.8163C4.62179 8.8066 4.63296 8.79624 4.64483 8.78554V8.85775C4.63863 8.87262 4.63475 8.88828 4.63331 8.90422C4.62318 9.02024 4.52475 9.28636 4.34463 9.42745C4.29025 9.46986 4.22462 9.49695 4.15508 9.50568H4.09644C4.08554 9.50559 4.07466 9.5066 4.06398 9.50869H4.06188C4.05561 9.51012 4.04943 9.51191 4.04338 9.51404C4.03684 9.51639 4.03053 9.5193 4.02453 9.52273C4.01945 9.52569 4.01456 9.52893 4.00987 9.53243V6.79395C4.21056 6.82642 4.41372 6.84286 4.61725 6.84309V6.84644ZM10.8188 12.088L10.3538 11.3943H10.3716C10.6781 11.3839 10.9165 11.1987 11.0823 10.9757V12.0894L10.8188 12.088ZM7.54279 11.9165C7.54279 11.7918 7.57351 11.4819 7.73338 11.3238C7.76774 11.2894 7.80928 11.2623 7.85529 11.2443C7.9013 11.2264 7.95076 11.2179 8.00042 11.2194H8.00496C8.05592 11.2171 8.10681 11.2253 8.1542 11.2434C8.20159 11.2615 8.24437 11.2891 8.27967 11.3244C8.42524 11.4719 8.45421 11.7524 8.45421 11.9005C8.45309 11.9067 8.45251 11.9129 8.45246 11.9192V12.088H7.54314V11.9192L7.54279 11.9165ZM8.72753 11.9697C8.73102 11.9118 8.75161 11.422 8.47934 11.1452C8.41867 11.0835 8.34501 11.0349 8.26323 11.0025C8.18145 10.9701 8.09341 10.9547 8.00496 10.9573H7.99937C7.91321 10.9558 7.82765 10.9715 7.74811 11.0032C7.66856 11.035 7.59675 11.0822 7.53721 11.1419C7.26284 11.415 7.26947 11.8991 7.27052 11.9383V12.088H5.50458L5.64944 11.8724H6.76646C6.8016 11.8707 6.83472 11.8561 6.85896 11.8317C6.88321 11.8073 6.89673 11.7749 6.89673 11.7412C6.89673 11.7075 6.88321 11.6751 6.85896 11.6506C6.83472 11.6262 6.8016 11.6116 6.76646 11.6099H5.82398L5.86342 11.5511H6.61462C6.64976 11.5494 6.68288 11.5348 6.70712 11.5104C6.73136 11.486 6.74488 11.4536 6.74488 11.4199C6.74488 11.3862 6.73136 11.3538 6.70712 11.3293C6.68288 11.3049 6.64976 11.2904 6.61462 11.2887H6.04075L7.69917 8.81463H7.91141C7.92939 8.81467 7.9472 8.81131 7.96383 8.80474C7.98045 8.79817 7.99555 8.78852 8.00827 8.77634C8.02098 8.76416 8.03106 8.74969 8.03792 8.73377C8.04478 8.71785 8.04829 8.70079 8.04824 8.68357C8.04829 8.66635 8.04478 8.64928 8.03792 8.63336C8.03106 8.61744 8.02098 8.60298 8.00827 8.5908C7.99555 8.57862 7.98045 8.56897 7.96383 8.5624C7.9472 8.55583 7.92939 8.55247 7.91141 8.55251H7.8765L8.00042 8.36763L10.4949 12.0867H8.72753V11.9697ZM4.00603 9.73938C4.0157 9.74677 4.02639 9.75285 4.0378 9.75743C4.04608 9.76043 4.0546 9.76278 4.06328 9.76445C4.07181 9.76608 4.08044 9.76719 4.08911 9.76779H4.10866C4.12821 9.76779 4.1481 9.76779 4.16765 9.76779C4.18091 9.76612 4.19453 9.76512 4.20744 9.76278C4.32016 9.74566 4.42607 9.70008 4.51427 9.63072C4.56039 9.59405 4.60292 9.55343 4.64134 9.50936V9.59027C4.60922 9.76144 4.47483 10.281 4.03675 10.3037C4.02698 10.3037 4.0172 10.3037 4.00743 10.3037L4.00603 9.73938ZM5.1803 12.0867H4.91605V10.9744C5.08186 11.1974 5.31992 11.3826 5.62641 11.393H5.6463L5.1803 12.0867ZM4.00603 10.5652H4.01406H4.04583H4.05804C4.316 10.5505 4.5059 10.4221 4.64134 10.2539V10.3335C4.61236 10.4605 4.46366 10.9687 4.04094 11.1068C4.01765 10.94 4.00599 10.7719 4.00603 10.6036V10.5652ZM4.64134 10.9894V12.088H4.32124C4.21969 11.8585 4.14217 11.6198 4.08981 11.3756C4.32124 11.3241 4.5059 11.171 4.64134 10.9894ZM8.0273 14.4033H7.97424C7.24703 14.4031 6.53385 14.2116 5.9125 13.8497C5.29115 13.4878 4.78551 12.9695 4.45074 12.3511H11.548C11.2133 12.9693 10.7079 13.4875 10.0868 13.8494C9.46576 14.2112 8.75287 14.4028 8.0259 14.4033H8.0273ZM11.6789 12.088H11.3564V10.9894C11.4925 11.1716 11.6779 11.3238 11.9117 11.3759C11.8585 11.6201 11.78 11.8587 11.6775 12.088H11.6789ZM11.9931 10.6039C11.9931 10.7724 11.9815 10.9408 11.9582 11.1078C11.5333 10.971 11.3846 10.4612 11.3553 10.3338V10.2542C11.4908 10.4214 11.6806 10.5508 11.9386 10.5655H11.9508H11.9829H11.9931V10.6039Z" fill="#231F20"/>
<path d="M9.55578 3.1254H10.7775C10.8138 3.1254 10.8486 3.11159 10.8743 3.08701C10.8999 3.06243 10.9144 3.0291 10.9144 2.99434C10.9144 2.95958 10.8999 2.92624 10.8743 2.90167C10.8486 2.87709 10.8138 2.86328 10.7775 2.86328H9.55578C9.51949 2.86328 9.48468 2.87709 9.45902 2.90167C9.43336 2.92624 9.41895 2.95958 9.41895 2.99434C9.41895 3.0291 9.43336 3.06243 9.45902 3.08701C9.48468 3.11159 9.51949 3.1254 9.55578 3.1254Z" fill="#231F20"/>
<path d="M10.9873 6.0004C11.0236 6.0004 11.0584 5.98659 11.084 5.96201C11.1097 5.93743 11.1241 5.9041 11.1241 5.86934C11.1241 5.83458 11.1097 5.80124 11.084 5.77667C11.0584 5.75209 11.0236 5.73828 10.9873 5.73828H9.59972C9.56343 5.73828 9.52863 5.75209 9.50297 5.77667C9.47731 5.80124 9.46289 5.83458 9.46289 5.86934C9.46289 5.9041 9.47731 5.93743 9.50297 5.96201C9.52863 5.98659 9.56343 6.0004 9.59972 6.0004H10.9873Z" fill="#231F20"/>
<path d="M11.0844 6.15234H9.03749C9.00235 6.15404 8.96924 6.16861 8.94499 6.19303C8.92075 6.21746 8.90723 6.24987 8.90723 6.28357C8.90723 6.31727 8.92075 6.34968 8.94499 6.3741C8.96924 6.39852 9.00235 6.41309 9.03749 6.41479H11.0844C11.1196 6.41309 11.1527 6.39852 11.1769 6.3741C11.2012 6.34968 11.2147 6.31727 11.2147 6.28357C11.2147 6.24987 11.2012 6.21746 11.1769 6.19303C11.1527 6.16861 11.1196 6.15404 11.0844 6.15234Z" fill="#231F20"/>
<path d="M5.21425 12.9617H10.7833C10.8184 12.96 10.8515 12.9454 10.8758 12.921C10.9 12.8965 10.9136 12.8641 10.9136 12.8304C10.9136 12.7967 10.9 12.7643 10.8758 12.7399C10.8515 12.7155 10.8184 12.7009 10.7833 12.6992H5.21425C5.17911 12.7009 5.14599 12.7155 5.12175 12.7399C5.0975 12.7643 5.08398 12.7967 5.08398 12.8304C5.08398 12.8641 5.0975 12.8965 5.12175 12.921C5.14599 12.9454 5.17911 12.96 5.21425 12.9617Z" fill="#231F20"/>
<path d="M9.53258 13.3125H6.46496C6.42867 13.3125 6.39386 13.3263 6.3682 13.3509C6.34254 13.3755 6.32812 13.4088 6.32812 13.4436C6.32812 13.4783 6.34254 13.5117 6.3682 13.5362C6.39386 13.5608 6.42867 13.5746 6.46496 13.5746H9.53258C9.56887 13.5746 9.60368 13.5608 9.62934 13.5362C9.655 13.5117 9.66942 13.4783 9.66942 13.4436C9.66942 13.4088 9.655 13.3755 9.62934 13.3509C9.60368 13.3263 9.56887 13.3125 9.53258 13.3125Z" fill="#231F20"/>
<path d="M8.76728 13.918H7.51867C7.48238 13.918 7.44758 13.9318 7.42191 13.9564C7.39625 13.9809 7.38184 14.0143 7.38184 14.049C7.38184 14.0838 7.39625 14.1171 7.42191 14.1417C7.44758 14.1663 7.48238 14.1801 7.51867 14.1801H8.76728C8.80357 14.1801 8.83838 14.1663 8.86404 14.1417C8.8897 14.1171 8.90412 14.0838 8.90412 14.049C8.90412 14.0143 8.8897 13.9809 8.86404 13.9564C8.83838 13.9318 8.80357 13.918 8.76728 13.918Z" fill="#231F20"/>
<path d="M10.9523 3.28125H9.13781C9.06224 3.28125 9.00098 3.33993 9.00098 3.41231C9.00098 3.48469 9.06224 3.54336 9.13781 3.54336H10.9523C11.0278 3.54336 11.0891 3.48469 11.0891 3.41231C11.0891 3.33993 11.0278 3.28125 10.9523 3.28125Z" fill="#231F20"/>
<path d="M8.54504 3.96133H11.0583C11.0946 3.96133 11.1294 3.94753 11.1551 3.92295C11.1807 3.89837 11.1952 3.86503 11.1952 3.83028C11.1952 3.79552 11.1807 3.76218 11.1551 3.7376C11.1294 3.71303 11.0946 3.69922 11.0583 3.69922H8.54504C8.50875 3.69922 8.47394 3.71303 8.44828 3.7376C8.42262 3.76218 8.4082 3.79552 8.4082 3.83028C8.4082 3.86503 8.42262 3.89837 8.44828 3.92295C8.47394 3.94753 8.50875 3.96133 8.54504 3.96133Z" fill="#231F20"/>
<path d="M7.99925 9.32031C7.91364 9.32031 7.82996 9.34463 7.75878 9.39018C7.6876 9.43573 7.63212 9.50048 7.59936 9.57623C7.56659 9.65198 7.55802 9.73533 7.57472 9.81575C7.59142 9.89617 7.63265 9.97004 7.69318 10.028C7.75372 10.086 7.83084 10.1255 7.91481 10.1415C7.99877 10.1575 8.0858 10.1493 8.1649 10.1179C8.24399 10.0865 8.31159 10.0334 8.35915 9.96519C8.40671 9.89702 8.4321 9.81687 8.4321 9.73487C8.43201 9.62495 8.38637 9.51956 8.30522 9.44183C8.22406 9.36411 8.11402 9.3204 7.99925 9.32031ZM7.99925 9.88866C7.96777 9.88866 7.937 9.87972 7.91082 9.86297C7.88464 9.84622 7.86424 9.82241 7.85219 9.79455C7.84015 9.76669 7.83699 9.73604 7.84314 9.70647C7.84928 9.6769 7.86444 9.64973 7.8867 9.62841C7.90896 9.60709 7.93732 9.59257 7.9682 9.58669C7.99908 9.58081 8.03108 9.58383 8.06017 9.59536C8.08925 9.6069 8.11411 9.62644 8.1316 9.65151C8.14909 9.67658 8.15843 9.70606 8.15843 9.73621C8.15797 9.77638 8.14101 9.81477 8.11122 9.84305C8.08142 9.87133 8.0412 9.88724 7.99925 9.88732V9.88866Z" fill="#231F20"/>
</svg>
