<svg width="108" height="57" viewBox="0 0 108 57" fill="none" xmlns="http://www.w3.org/2000/svg">
<g clip-path="url(#clip0_560_562)">
<path d="M13.3576 37.8423H7.82669L6.80467 40.2442H4.88086L9.69038 29.6406H11.5541L16.3035 40.2442H14.3195L13.3576 37.8423ZM12.6362 36.2606L10.5922 31.5739L8.54812 36.2606H12.6362Z" fill="white"/>
<path d="M23.5832 32.2148V33.3865L18.8338 38.8348H23.7034V40.2408H16.6094V39.0691L21.3588 33.6208H16.7897V32.2148H23.5832Z" fill="white"/>
<path d="M30.0692 40.2447V39.2487C29.468 39.9517 28.5061 40.3032 27.3037 40.3032C25.5001 40.3032 24.418 39.2487 24.418 37.7842C24.418 36.3196 25.5602 35.3822 27.5442 35.3822H30.0692V35.1479C30.0692 34.152 29.4078 33.5076 28.0852 33.5076C27.3037 33.5076 26.462 33.8005 25.6203 34.3277L24.8989 33.0975C26.0412 32.4531 26.8828 32.1016 28.4459 32.1016C30.5501 32.1016 31.7525 33.1561 31.8126 34.9136V40.1861H30.0692V40.2447ZM30.0692 37.4327V36.6711H27.8448C26.7025 36.6711 26.1614 36.964 26.1614 37.7256C26.1614 38.4286 26.7626 38.8972 27.7846 38.8972C28.987 38.9558 29.9489 38.3114 30.0692 37.4327Z" fill="white"/>
<path d="M41.7294 28.9961V40.2441H39.9258V38.8381C39.3246 39.7754 38.3627 40.3027 37.0401 40.3027C34.6354 40.3027 33.0723 38.6038 33.0723 36.1433C33.0723 33.7413 34.6955 32.0424 36.98 32.0424C38.3026 32.0424 39.3246 32.5697 39.9258 33.507V28.9375H41.7294V28.9961ZM39.9258 36.2604C39.9258 34.6787 38.9038 33.6242 37.4008 33.6242C35.8979 33.6242 34.8758 34.7373 34.8758 36.2604C34.8758 37.7836 35.8979 38.8967 37.4008 38.8967C38.9038 38.8967 39.9258 37.7836 39.9258 36.2604Z" fill="white"/>
<path d="M46.0026 29.8748C46.0026 30.4606 45.5217 30.9293 44.9806 30.9293C44.4395 30.9293 43.8984 30.4606 43.8984 29.8748C43.8984 29.289 44.3794 28.8203 44.9205 28.8203C45.4615 28.8203 46.0026 29.289 46.0026 29.8748ZM45.8222 32.2182V40.3027H44.0187V32.2182H45.8222Z" fill="white"/>
<path fill-rule="evenodd" clip-rule="evenodd" d="M23.6758 12.6602L27.4032 16.5852L28.2448 17.6398L29.0264 18.7528L28.0645 17.8155L27.0424 16.8782L23.6758 12.6602Z" fill="white"/>
<path fill-rule="evenodd" clip-rule="evenodd" d="M25.3555 11.5469L28.0007 16.2336L28.5418 17.5224L29.0227 18.7526L28.3013 17.581L27.5799 16.4679L25.3555 11.5469Z" fill="white"/>
<path fill-rule="evenodd" clip-rule="evenodd" d="M27.2881 10.9609L28.7309 16.1163L28.8512 17.4051L29.0315 18.7525L28.6107 17.4637L28.1899 16.1749L27.2881 10.9609Z" fill="white"/>
<path fill-rule="evenodd" clip-rule="evenodd" d="M29.3921 10.8438V16.1163L29.2117 17.4637L29.0314 18.7525L28.9713 17.4051L28.9111 16.1163L29.3921 10.8438Z" fill="white"/>
<path fill-rule="evenodd" clip-rule="evenodd" d="M31.4301 11.3125L30.0474 16.3507L29.5665 17.5223L29.0254 18.7526L29.326 17.4638L29.5665 16.1749L31.4301 11.3125Z" fill="white"/>
<path fill-rule="evenodd" clip-rule="evenodd" d="M33.2938 12.25L30.6486 16.7023L29.8671 17.7568L29.0254 18.7528L29.6266 17.5811L30.2278 16.468L33.2938 12.25Z" fill="white"/>
<path fill-rule="evenodd" clip-rule="evenodd" d="M34.8569 13.6562L31.1296 17.2298L30.1075 17.9914L29.0254 18.753L29.9272 17.8157L30.829 16.8783L34.8569 13.6562Z" fill="white"/>
<path fill-rule="evenodd" clip-rule="evenodd" d="M36.0593 15.3555L31.4903 17.8746L30.2278 18.2846L29.0254 18.7533L30.1677 18.0503L31.2498 17.4059L36.0593 15.3555Z" fill="white"/>
<path fill-rule="evenodd" clip-rule="evenodd" d="M36.7807 17.3438L31.6706 18.5154L30.348 18.6326L29.0254 18.7498L30.2879 18.3983L31.5504 18.0468L36.7807 17.3438Z" fill="white"/>
<path fill-rule="evenodd" clip-rule="evenodd" d="M36.9611 19.3913L31.6706 19.2154L30.348 18.9807L29.0254 18.7461H30.348H31.6706L36.9611 19.3913Z" fill="white"/>
<path fill-rule="evenodd" clip-rule="evenodd" d="M36.6004 21.4409L31.4903 19.8592L30.2278 19.3319L29.0254 18.7461L30.348 19.0976L31.6105 19.3905L36.6004 21.4409Z" fill="white"/>
<path fill-rule="evenodd" clip-rule="evenodd" d="M35.7587 23.257L31.1296 20.445L30.1075 19.5663L29.0254 18.7461L30.2278 19.3905L31.37 20.0349L35.7587 23.257Z" fill="white"/>
<path fill-rule="evenodd" clip-rule="evenodd" d="M34.4361 24.7802L30.6486 20.9137L29.8069 19.8006L29.0254 18.7461L29.9873 19.6834L31.0093 20.6208L34.4361 24.7802Z" fill="white"/>
<path fill-rule="evenodd" clip-rule="evenodd" d="M32.6927 25.9519L30.0474 21.2066L29.5063 19.9763L29.0254 18.7461L29.7468 19.8592L30.4682 21.0308L32.6927 25.9519Z" fill="white"/>
<path fill-rule="evenodd" clip-rule="evenodd" d="M30.7688 26.5377L29.3861 21.3823L29.2057 20.0349L29.0254 18.7461L29.4462 20.0349L29.8671 21.2652L30.7688 26.5377Z" fill="white"/>
<path fill-rule="evenodd" clip-rule="evenodd" d="M28.6602 26.6549V21.3238L28.8405 20.0349L29.0209 18.7461L29.081 20.0349L29.1411 21.3823L28.6602 26.6549Z" fill="white"/>
<path fill-rule="evenodd" clip-rule="evenodd" d="M26.625 26.1862L28.0077 21.148L28.5488 19.9178L29.0298 18.7461L28.7292 20.0349L28.4887 21.3238L26.625 26.1862Z" fill="white"/>
<path fill-rule="evenodd" clip-rule="evenodd" d="M24.7617 25.2489L27.407 20.7379L28.2486 19.742L29.0302 18.7461L28.429 19.8592L27.8278 21.0308L24.7617 25.2489Z" fill="white"/>
<path fill-rule="evenodd" clip-rule="evenodd" d="M23.1953 23.8429L26.9227 20.2693L28.0048 19.5077L29.0269 18.7461L28.1251 19.6834L27.2834 20.6208L23.1953 23.8429Z" fill="white"/>
<path fill-rule="evenodd" clip-rule="evenodd" d="M21.9844 22.0854L26.5534 19.6248L27.8159 19.2148L29.0183 18.7461L27.9362 19.3905L26.7939 20.0935L21.9844 22.0854Z" fill="white"/>
<path fill-rule="evenodd" clip-rule="evenodd" d="M21.2754 20.1521L26.3855 18.9804L27.7081 18.8633L29.0307 18.7461L27.7682 19.0976L26.5057 19.4491L21.2754 20.1521Z" fill="white"/>
<path fill-rule="evenodd" clip-rule="evenodd" d="M21.0918 18.0508L26.3823 18.2851L27.7049 18.5195L29.0275 18.7538H27.7049H26.3823L21.0918 18.0508Z" fill="white"/>
<path fill-rule="evenodd" clip-rule="evenodd" d="M21.457 16.0586L26.5671 17.6403L27.8296 18.1676L29.032 18.7534L27.7094 18.4019L26.4469 18.109L21.457 16.0586Z" fill="white"/>
<path fill-rule="evenodd" clip-rule="evenodd" d="M22.3496 14.1836L26.9187 17.0542L28.0008 17.8744L29.0228 18.7531L27.8204 18.1087L26.6782 17.4643L22.3496 14.1836Z" fill="white"/>
<path fill-rule="evenodd" clip-rule="evenodd" d="M26.2707 11.2542C26.4511 11.137 26.6916 11.2542 26.8118 11.4299C26.9321 11.6057 26.8118 11.84 26.6315 11.9572C26.4511 12.0744 26.2106 11.9572 26.0904 11.7814C25.9702 11.5471 26.0904 11.3128 26.2707 11.2542Z" fill="white"/>
<path fill-rule="evenodd" clip-rule="evenodd" d="M28.2518 10.8474C28.4923 10.7888 28.6727 10.9646 28.7328 11.1403C28.7929 11.3747 28.6727 11.5504 28.4322 11.609C28.1917 11.6676 28.0114 11.4918 27.9512 11.3161C27.8911 11.0818 28.0715 10.906 28.2518 10.8474Z" fill="white"/>
<path fill-rule="evenodd" clip-rule="evenodd" d="M30.3613 11.0156C30.6017 11.0156 30.722 11.25 30.722 11.4257C30.722 11.66 30.5416 11.8358 30.3011 11.7772C30.0607 11.7772 29.9404 11.5429 29.9404 11.3671C29.9404 11.1328 30.1208 11.0156 30.3613 11.0156Z" fill="white"/>
<path fill-rule="evenodd" clip-rule="evenodd" d="M32.2778 11.7178C32.4582 11.7764 32.5784 12.0108 32.5183 12.2451C32.4582 12.4208 32.2177 12.538 32.0374 12.4794C31.857 12.4208 31.7368 12.1865 31.7969 11.9522C31.857 11.7178 32.0975 11.6007 32.2778 11.7178Z" fill="white"/>
<path fill-rule="evenodd" clip-rule="evenodd" d="M34.088 12.8913C34.2684 13.0084 34.3285 13.2428 34.2082 13.4185C34.088 13.5943 33.8475 13.6528 33.6672 13.5357C33.4868 13.4185 33.4267 13.1842 33.5469 13.0084C33.607 12.7741 33.9076 12.7155 34.088 12.8913Z" fill="white"/>
<path fill-rule="evenodd" clip-rule="evenodd" d="M35.4652 14.4215C35.6456 14.5972 35.5855 14.8316 35.4652 15.0073C35.2849 15.1245 35.0444 15.1245 34.9242 14.9487C34.8039 14.773 34.8039 14.5387 34.9242 14.3629C35.0444 14.2457 35.345 14.2457 35.4652 14.4215Z" fill="white"/>
<path fill-rule="evenodd" clip-rule="evenodd" d="M36.4261 16.2971C36.5463 16.4729 36.4261 16.7072 36.2457 16.8244C36.0654 16.9416 35.8249 16.8244 35.7046 16.6486C35.5844 16.4729 35.7046 16.2385 35.885 16.1214C36.1255 16.0042 36.366 16.1214 36.4261 16.2971Z" fill="white"/>
<path fill-rule="evenodd" clip-rule="evenodd" d="M36.9102 18.3458C36.9703 18.5802 36.85 18.7559 36.6096 18.8145C36.3691 18.8731 36.1887 18.6973 36.1286 18.5216C36.0685 18.2873 36.1887 18.1115 36.4292 18.0529C36.6697 17.9358 36.85 18.1115 36.9102 18.3458Z" fill="white"/>
<path fill-rule="evenodd" clip-rule="evenodd" d="M36.8499 20.3906C36.8499 20.6249 36.6695 20.7421 36.4291 20.7421C36.1886 20.7421 36.0684 20.5077 36.0684 20.332C36.0684 20.0976 36.2487 19.9805 36.4892 19.9805C36.6695 19.9805 36.8499 20.1562 36.8499 20.3906Z" fill="white"/>
<path fill-rule="evenodd" clip-rule="evenodd" d="M36.2449 22.3276C36.1848 22.562 35.9443 22.6206 35.7639 22.562C35.5836 22.5034 35.4633 22.2691 35.5235 22.0347C35.5836 21.859 35.824 21.7418 36.0044 21.8004C36.1848 21.859 36.305 22.0933 36.2449 22.3276Z" fill="white"/>
<path fill-rule="evenodd" clip-rule="evenodd" d="M35.1682 24.0218C35.048 24.1976 34.8075 24.2561 34.6271 24.139C34.4468 24.0218 34.3867 23.7875 34.5069 23.6117C34.6271 23.436 34.8676 23.3774 35.048 23.4946C35.2283 23.6117 35.2884 23.8461 35.1682 24.0218Z" fill="white"/>
<path fill-rule="evenodd" clip-rule="evenodd" d="M33.6586 25.3745C33.4782 25.4917 33.2378 25.4917 33.1175 25.3159C32.9973 25.1402 32.9973 24.9058 33.1175 24.7301C33.2979 24.6129 33.5384 24.6129 33.6586 24.7887C33.839 24.9644 33.7788 25.1988 33.6586 25.3745Z" fill="white"/>
<path fill-rule="evenodd" clip-rule="evenodd" d="M31.7867 26.2541C31.6064 26.3712 31.3659 26.2541 31.2457 26.0783C31.1254 25.9026 31.2457 25.6682 31.426 25.5511C31.6064 25.4339 31.8469 25.5511 31.9671 25.7268C32.0873 25.9026 32.0272 26.1369 31.7867 26.2541Z" fill="white"/>
<path fill-rule="evenodd" clip-rule="evenodd" d="M29.8185 26.6129C29.5781 26.6715 29.3977 26.4958 29.3376 26.32C29.2775 26.0857 29.3977 25.9099 29.6382 25.8513C29.8787 25.7928 30.059 25.9685 30.1191 26.1443C30.1793 26.3786 29.9989 26.6129 29.8185 26.6129Z" fill="white"/>
<path fill-rule="evenodd" clip-rule="evenodd" d="M27.7631 26.4842C27.5226 26.4842 27.4023 26.2499 27.4023 26.0742C27.4023 25.8398 27.5827 25.7227 27.8232 25.7227C28.0637 25.7227 28.1839 25.957 28.1839 26.1327C28.1238 26.3085 27.9434 26.4842 27.7631 26.4842Z" fill="white"/>
<path fill-rule="evenodd" clip-rule="evenodd" d="M28.3665 17.9964C28.7874 17.6449 29.3886 17.7035 29.8094 18.1136C30.1701 18.5237 30.1701 19.1681 29.7493 19.5196C29.3284 19.8711 28.7273 19.8125 28.3064 19.4024C27.9457 18.9923 27.9457 18.3479 28.3665 17.9964Z" fill="white"/>
<path fill-rule="evenodd" clip-rule="evenodd" d="M35.1062 13.4808C32.6414 10.6688 28.7336 9.84865 25.6074 11.1961V11.8991C28.5533 10.4931 32.2806 11.2547 34.6854 13.8909C37.511 17.113 37.3306 21.9168 34.2044 24.6117C31.7997 26.7207 28.3729 26.8964 25.6074 25.4318V26.1348C28.5533 27.5994 32.1003 27.3065 34.6253 25.1389C37.9318 22.0926 38.1723 16.9372 35.1062 13.4808Z" fill="white"/>
<path d="M56.521 43.9438L53.6353 40.1945L52.1323 41.7762V43.9438H50.6895V35.4492H52.1323V39.843L56.2805 35.4492H58.024L54.6573 39.0814L58.2645 43.9438H56.521Z" fill="white"/>
<path d="M63.1886 43.9442V43.1826C62.7077 43.7684 61.9261 44.0613 61.0243 44.0613C59.5815 44.0613 58.6797 43.1826 58.6797 42.0695C58.6797 40.8978 59.5815 40.1362 61.2047 40.1362H63.1886V39.8433C63.1886 39.0231 62.6475 38.5545 61.6255 38.5545C60.9642 38.5545 60.3029 38.7888 59.6416 39.1989L59.0404 38.203C59.9422 37.6757 60.6636 37.3828 61.866 37.3828C63.5493 37.3828 64.5112 38.203 64.5714 39.6676V43.8856H63.1886V43.9442ZM63.1886 41.6594V41.0736H61.385C60.4231 41.0736 60.0023 41.3079 60.0023 41.9523C60.0023 42.5382 60.4833 42.8897 61.2648 42.8897C62.347 42.8897 63.1285 42.3624 63.1886 41.6594Z" fill="white"/>
<path d="M39.5603 46.1094L43.1675 53.1394L46.7746 46.1094H48.9389V56.713H47.2556V48.8042L43.8288 55.5999H42.6264L39.0794 48.8042V56.713H37.3359V46.1094H39.5603Z" fill="white"/>
<path d="M56.2137 56.7134V55.7175C55.6125 56.4205 54.6506 56.772 53.4482 56.772C51.6446 56.772 50.5625 55.7175 50.5625 54.2529C50.5625 52.7883 51.7048 51.851 53.6887 51.851H56.2137V51.6166C56.2137 50.6207 55.5524 49.9763 54.2298 49.9763C53.4482 49.9763 52.6065 50.2692 51.7649 50.7965L51.0435 49.5662C52.1857 48.9218 53.0274 48.5703 54.5905 48.5703C56.6946 48.5703 57.897 49.6248 57.9571 51.3823V56.6548H56.2137V56.7134ZM56.2137 53.9014V53.1398H53.9893C52.847 53.1398 52.306 53.4327 52.306 54.1943C52.306 54.8973 52.9071 55.366 53.9292 55.366C55.1315 55.4246 56.1536 54.7802 56.2137 53.9014Z" fill="white"/>
<path d="M67.9982 51.6747V56.7129H66.1946V52.2019C66.1946 50.9717 65.4732 50.2687 64.2107 50.2687C62.7077 50.2687 61.8661 51.3818 61.8661 52.7878V56.7715H60.0625V45.4648H61.8661V50.2101C62.4673 49.097 63.4893 48.5698 64.9321 48.5698C66.8559 48.5698 67.9982 49.8 67.9982 51.6747Z" fill="white"/>
<path d="M77.911 52.6712C77.911 55.1317 76.1676 56.772 73.5825 56.772C70.9974 56.772 69.2539 55.1317 69.2539 52.6712C69.2539 50.2692 70.9974 48.5703 73.5825 48.5703C76.1075 48.5703 77.911 50.2692 77.911 52.6712ZM71.0575 52.7297C71.0575 54.3115 72.0795 55.366 73.5825 55.366C75.0855 55.366 76.1075 54.3115 76.1075 52.7297C76.1075 51.2066 75.0855 50.0935 73.5825 50.0935C72.0795 50.0935 71.0575 51.148 71.0575 52.7297Z" fill="white"/>
<path d="M84.0563 56.1858C83.395 56.5373 82.7337 56.7717 82.0123 56.7717C80.7498 56.7717 79.6676 56.0687 79.6676 54.4283V50.2689H78.5254V48.9801H79.6676V46.7539H81.4712V48.9801H83.9361V50.2689H81.4712V54.1354C81.4712 54.9556 81.7718 55.2485 82.373 55.2485C82.7337 55.2485 83.1546 55.1313 83.6355 54.897L84.0563 56.1858Z" fill="white"/>
<path d="M87.6503 49.9724C86.9289 49.9724 86.4479 50.2068 86.4479 50.7926C86.4479 52.2572 90.8366 51.4956 90.8366 54.4248C90.8366 56.0651 89.3336 56.8267 87.6503 56.8267C86.4479 56.8267 85.1253 56.4166 84.3438 55.7136L85.0051 54.4833C85.7265 55.1278 86.8687 55.4793 87.7705 55.4793C88.5521 55.4793 89.1533 55.2449 89.1533 54.6005C89.1533 52.9602 84.8247 53.8975 84.8247 50.9683C84.8247 49.328 86.2676 48.625 87.8908 48.625C88.9128 48.625 90.0551 48.9179 90.7765 49.4452L90.1152 50.734C89.2735 50.2653 88.3717 49.9724 87.6503 49.9724Z" fill="white"/>
<path d="M97.2078 56.7134V55.7175C96.6066 56.4205 95.6447 56.772 94.4424 56.772C92.6388 56.772 91.5566 55.7175 91.5566 54.2529C91.5566 52.7883 92.6989 51.851 94.6828 51.851H97.2078V51.6166C97.2078 50.6207 96.5465 49.9763 95.2239 49.9763C94.4423 49.9763 93.6007 50.2692 92.759 50.7965L92.0376 49.5662C93.1799 48.9218 94.0215 48.5703 95.5846 48.5703C97.6888 48.5703 98.8912 49.6248 98.9513 51.3823V56.6548H97.2078V56.7134ZM97.1477 53.9014V53.1398H94.9233C93.781 53.1398 93.24 53.4327 93.24 54.1943C93.24 54.8973 93.8412 55.366 94.8632 55.366C96.1257 55.4246 97.0876 54.7802 97.1477 53.9014Z" fill="white"/>
<path d="M101.309 48.625L103.594 54.952L105.878 48.625H107.682L104.495 56.7095H102.632L99.4453 48.625H101.309Z" fill="white"/>
<path d="M6.74505 50.5106H2.35636L1.51469 52.4438H0.0117188L3.85934 43.9492H5.36231L9.14981 52.4438H7.58672L6.74505 50.5106ZM6.20398 49.2217L4.58077 45.4724L2.89743 49.2217H6.20398Z" fill="white"/>
<path d="M20.9882 48.398V52.4402H19.5454V48.8081C19.5454 47.8122 18.9442 47.2263 17.9823 47.2263C16.84 47.2849 16.1787 48.1051 16.1787 49.2182V52.3817H14.7359V48.7495C14.7359 47.7536 14.1347 47.1677 13.1728 47.1677C12.0305 47.2263 11.3091 48.0465 11.3091 49.1596V52.3231H9.86621V45.8789H11.3091V47.1092C11.79 46.1718 12.6317 45.8203 13.7138 45.8203C14.9162 45.8203 15.6978 46.4062 15.9984 47.4021C16.4192 46.3476 17.321 45.8203 18.5234 45.8203C20.0864 45.9375 20.9882 46.8748 20.9882 48.398Z" fill="white"/>
<path d="M26.3514 45.9336V47.281C25.0288 47.2224 24.1871 47.984 24.0669 49.0971V52.4949H22.624V46.0508H24.0669V47.3396C24.4877 46.4023 25.2693 45.9336 26.3514 45.9336Z" fill="white"/>
<path d="M28.7429 44.1249C28.7429 44.5935 28.3822 44.945 27.9012 44.945C27.4203 44.945 27.0596 44.5935 27.0596 44.1249C27.0596 43.6562 27.4203 43.3047 27.9012 43.3047C28.3822 43.3047 28.7429 43.6562 28.7429 44.1249ZM28.6227 45.9995V52.4437H27.1798V45.9995H28.6227Z" fill="white"/>
<path d="M34.1607 52.0338C33.6196 52.3268 33.0786 52.5025 32.5375 52.5025C31.5155 52.5025 30.6738 51.9167 30.6738 50.6278V47.2886H29.7119V46.2341H30.6738V44.4766H32.1167V46.2341H34.1006V47.2886H32.1167V50.3935C32.1167 51.0379 32.3571 51.2722 32.8381 51.2722C33.1387 51.2722 33.4393 51.1551 33.8601 50.9793L34.1607 52.0338Z" fill="white"/>
<path fill-rule="evenodd" clip-rule="evenodd" d="M87.0039 9.02407C86.5229 8.78973 86.2223 8.96549 85.8616 9.14124C82.8557 10.4887 79.8497 10.4301 76.6634 9.49274C74.1384 8.78974 71.5533 8.14532 68.9081 7.91098C64.1587 7.5009 59.9503 9.14124 55.8622 11.1331C54.0587 12.0118 52.3152 12.9492 50.3313 13.4178C48.5878 13.8279 47.9265 13.1249 48.2872 11.426C48.5878 9.9614 48.2271 9.37557 46.7843 8.9069C46.4235 8.78973 46.0027 8.67257 45.5819 8.61398C40.5319 8.02815 35.542 8.73115 30.6122 9.90282L30.1914 10.0786C30.1914 10.0786 35.7224 9.72707 38.1271 14.4723C41.1932 14.0037 44.2593 14.1208 47.3253 14.5895C48.5878 14.7652 49.0688 15.4097 48.5878 16.6399C48.4075 17.1086 48.2872 17.6944 48.2872 18.2217C48.167 19.8034 48.8884 20.4478 50.5116 20.0963C51.0527 19.9792 51.5938 19.8034 52.0747 19.5691C54.2991 18.5146 56.5235 17.5187 58.5676 16.1713C60.7319 14.7067 63.0765 13.7693 65.7819 13.535C69.3289 13.1835 72.8759 13.4178 76.4229 13.3007C79.489 13.1835 82.5551 12.832 85.1402 11.0159C85.8616 10.4301 86.7033 9.9614 87.0039 9.02407Z" fill="white"/>
<path fill-rule="evenodd" clip-rule="evenodd" d="M87.0021 19.9186C86.5211 19.6843 86.2206 19.86 85.8598 20.0358C82.8539 21.3832 79.8479 21.3246 76.6616 20.3873C74.1366 19.6843 71.5515 19.0398 68.9063 18.8055C64.1569 18.3954 59.9485 20.0358 55.8604 22.0276C54.0569 22.9064 52.3134 23.8437 50.3295 24.3124C48.586 24.7224 47.9247 24.0194 48.2855 22.3205C48.586 20.8559 48.2253 20.2701 46.7825 19.8014C46.4218 19.6843 46.0009 19.5671 45.5801 19.5085C43.4759 19.2742 41.3718 19.2156 39.2676 19.3913C39.2075 20.1529 38.6063 24.078 34.8789 26.0699C35.3599 25.9527 35.7807 25.8355 36.2616 25.7184C39.9289 24.8982 43.6563 24.9568 47.3837 25.4254C48.6462 25.6012 49.1271 26.2456 48.6462 27.4759C48.4658 27.9445 48.3456 28.5304 48.3456 29.0576C48.2253 30.6394 48.9468 31.2838 50.57 30.9323C51.111 30.8151 51.6521 30.6394 52.1331 30.405C54.3575 29.3505 56.5819 28.3546 58.6259 27.0072C60.7902 25.5426 63.1348 24.6053 65.8402 24.3709C69.3872 24.0194 72.9342 24.2538 76.4813 24.1366C79.5473 24.0194 82.6134 23.6679 85.1985 21.8519C85.8598 21.3832 86.7015 20.9145 87.0021 19.9186Z" fill="white"/>
<path fill-rule="evenodd" clip-rule="evenodd" d="M5.58984 0.00390625V2.34724H19.8982L7.87437 23.8474L9.79818 25.1948L24.1666 0.00390625H5.58984Z" fill="white"/>
<path fill-rule="evenodd" clip-rule="evenodd" d="M37.7693 0.00390625H26.6473L18.5312 14.2397L20.3949 15.177L27.8497 2.34724H37.7693V0.00390625Z" fill="white"/>
</g>
<defs>
<clipPath id="clip0_560_562">
<rect width="107.613" height="56.7674" fill="white"/>
</clipPath>
</defs>
</svg>
